<?xml version="1.0" encoding="utf-8"?>
<!-- Generator: Adobe Illustrator 21.0.0, SVG Export Plug-In . SVG Version: 6.00 Build 0)  -->
<svg version="1.1" id="Layer_1" xmlns="http://www.w3.org/2000/svg" xmlns:xlink="http://www.w3.org/1999/xlink" x="0px" y="0px"
	 viewBox="0 0 792 612" style="enable-background:new 0 0 792 612;" xml:space="preserve">
<style type="text/css">
	.st0{fill:#1D1D1B;}
</style>
<path class="st0" d="M742.1,466.6v48.2c0,6.4-5.2,11.6-11.6,11.7h-16.1c0.2-1.4,0.3-2.8,0.3-4.2c0-12.1-8.4-23.4-21.1-23.4
	c-11.6,0-19.9,8.4-19.9,19.9c0,2.8,0.6,5.4,1.7,7.7h-17.3c0.2-1.4,0.3-2.8,0.3-4.2c0-12.1-8.4-23.4-21.1-23.4
	c-11.6,0-19.9,8.4-19.9,19.9c0,2.8,0.6,5.4,1.7,7.7H61.5c-6.4,0-11.6-5.2-11.6-11.6v-116h-9v116c0,11.3,9.3,20.6,20.6,20.6h567.9
	c1.6,0.5,3.3,0.9,5,1c-4.6,4.6-10.4,7.2-16.8,8.7v16.8c14.6-3.1,31-12.5,37.7-26.4h30.4c1.6,0.5,3.3,0.9,5,1
	c-4.6,4.6-10.4,7.2-16.8,8.7v16.8c14.6-3.1,31-12.5,37.7-26.4h18.8c11.4,0,20.6-9.3,20.6-20.7v-48.2H742.1z"/>
</svg>
