<svg id="Layer_1" data-name="Layer 1" xmlns="http://www.w3.org/2000/svg" viewBox="0 0 792 612"><defs><style>.cls-1{fill:#1d1d1b;}</style></defs><title>textBox_outlined_upArtboard 1</title><path class="cls-1" d="M733.78,88.76H188.85a29.75,29.75,0,0,0,.42-4.9c0-12.14-8.38-23.42-21.1-23.42-11.56,0-19.95,8.38-19.95,19.95a17.58,17.58,0,0,0,2.06,8.37h-17.8a29.75,29.75,0,0,0,.42-4.9c0-12.14-8.38-23.42-21.1-23.42-11.56,0-19.95,8.38-19.95,19.95a17.58,17.58,0,0,0,2.06,8.37H64.72a20.71,20.71,0,0,0-20.6,20.61v47.14h9V109.38A11.69,11.69,0,0,1,64.73,97.76h42a19.83,19.83,0,0,0,2.17.26c-4.62,4.63-10.41,7.23-16.77,8.67v16.77c14.31-3.08,30.46-12.21,37.35-25.7h33.63a19.83,19.83,0,0,0,2.17.26c-4.62,4.63-10.41,7.23-16.77,8.67v16.77c14.31-3.08,30.46-12.21,37.35-25.7H733.77a11.69,11.69,0,0,1,11.62,11.61V223h9V109.36A20.71,20.71,0,0,0,733.78,88.76Z"/></svg>